<svg width="124" height="24" viewBox="0 0 124 24" fill="none" xmlns="http://www.w3.org/2000/svg">
<path fill-rule="evenodd" clip-rule="evenodd" d="M12 24C18.6274 24 24 18.6274 24 12C24 5.37258 18.6274 0 12 0C5.37258 0 0 5.37258 0 12C0 18.6274 5.37258 24 12 24ZM11.564 16.5138C12.0743 16.4993 12.4195 16.0239 12.3399 15.5287C12.2604 15.0334 11.7849 14.7083 11.2748 14.6968C10.4745 14.6788 9.68782 14.4678 8.98614 14.0761C8.01583 13.5344 7.26679 12.6801 6.86397 11.6555C6.46115 10.631 6.42893 9.49822 6.77267 8.44621C7.02124 7.68545 7.45554 7.00019 8.03149 6.44769C8.39867 6.09546 8.52634 5.53611 8.24696 5.11844C7.96758 4.70078 7.38961 4.58395 7.00459 4.91719C6.08295 5.71489 5.39187 6.74618 5.01339 7.90452C4.53988 9.35369 4.58428 10.9141 5.13916 12.3254C5.69405 13.7368 6.72588 14.9137 8.0625 15.6598C9.13089 16.2562 10.3424 16.5485 11.564 16.5138ZM9.59613 7.52949C9.27514 7.14204 9.33405 6.56283 9.77106 6.29928C10.8171 5.66843 12.0206 5.32428 13.254 5.3124C14.7971 5.29753 16.2937 5.80362 17.4942 6.74625C18.6946 7.68888 19.5264 9.01104 19.8506 10.4922C20.1098 11.676 20.0322 12.9043 19.6351 14.0447C19.4693 14.5211 18.9066 14.7048 18.4511 14.4825C17.9955 14.2602 17.8224 13.7156 17.9631 13.2316C18.1838 12.4724 18.2137 11.6686 18.0434 10.891C17.8081 9.81583 17.2043 8.85602 16.3328 8.17172C15.4613 7.48743 14.3749 7.12003 13.2547 7.13082C12.4446 7.13863 11.6524 7.34386 10.9464 7.72202C10.4963 7.9631 9.91713 7.91694 9.59613 7.52949ZM15.699 10.7239C16.1655 10.5156 16.7184 10.7162 16.8601 11.1973C17.1992 12.3489 17.2147 13.5785 16.8959 14.7536C16.4971 16.2238 15.5992 17.5197 14.352 18.4251C13.1048 19.3306 11.5838 19.7908 10.0426 19.7291C8.81078 19.6798 7.62562 19.2994 6.61223 18.6372C6.18888 18.3606 6.15927 17.7801 6.4996 17.4027C6.83993 17.0252 7.42102 16.9967 7.85855 17.2513C8.54486 17.6506 9.32615 17.8797 10.1352 17.9121C11.254 17.9569 12.3581 17.6228 13.2635 16.9655C14.1689 16.3082 14.8207 15.3674 15.1103 14.3002C15.3196 13.5284 15.3304 12.7243 15.1482 11.959C15.0321 11.4711 15.2326 10.9322 15.699 10.7239Z" fill="#23F0A2"/>
<path d="M38.712 23.5V3.404H31.448V0.875999H48.76V3.404H41.496V23.5H38.712ZM60.8743 23.756C58.5276 23.756 56.5756 23.2653 55.0183 22.284C53.4823 21.2813 52.3303 19.916 51.5623 18.188C50.8156 16.46 50.4423 14.4867 50.4423 12.268C50.4423 10.604 50.6449 9.068 51.0503 7.66C51.4769 6.252 52.1169 5.02533 52.9703 3.98C53.8236 2.91333 54.8903 2.092 56.1703 1.516C57.4716 0.918666 58.9969 0.619999 60.7463 0.619999C62.4103 0.619999 63.8609 0.875999 65.0983 1.388C66.3356 1.9 67.3489 2.61467 68.1383 3.532C68.9489 4.44933 69.5143 5.53733 69.8343 6.796H66.7943C66.5809 6.04933 66.1969 5.40933 65.6423 4.876C65.0876 4.32133 64.3943 3.89467 63.5623 3.596C62.7303 3.29733 61.7809 3.148 60.7143 3.148C59.3916 3.148 58.2609 3.38267 57.3223 3.852C56.3836 4.32133 55.6156 4.972 55.0183 5.804C54.4209 6.61467 53.9836 7.57467 53.7063 8.684C53.4289 9.772 53.2903 10.9453 53.2903 12.204C53.2903 13.868 53.5569 15.3827 54.0903 16.748C54.6236 18.1133 55.4449 19.2013 56.5543 20.012C57.6636 20.8227 59.0929 21.228 60.8423 21.228C62.2929 21.228 63.5303 20.972 64.5543 20.46C65.5783 19.9267 66.3676 19.1693 66.9223 18.188C67.4769 17.1853 67.7543 15.9907 67.7543 14.604H60.3303V12.076H70.4103V13.964C70.4103 15.9267 70.0263 17.644 69.2583 19.116C68.4903 20.588 67.3916 21.7293 65.9623 22.54C64.5543 23.3507 62.8583 23.756 60.8743 23.756ZM92.1785 23.756C90.0665 23.756 88.3492 23.3187 87.0265 22.444C85.7038 21.5693 84.7332 20.3853 84.1145 18.892C83.4958 17.3773 83.1865 15.66 83.1865 13.74V0.875999H85.9705V13.708C85.9705 15.0733 86.1625 16.332 86.5465 17.484C86.9518 18.6147 87.6132 19.5213 88.5305 20.204C89.4478 20.8867 90.6745 21.228 92.2105 21.228C93.7678 21.228 94.9838 20.8867 95.8585 20.204C96.7545 19.5213 97.3945 18.6147 97.7785 17.484C98.1625 16.332 98.3545 15.0733 98.3545 13.708V0.875999H101.171V13.74C101.171 15.6387 100.861 17.3453 100.243 18.86C99.6238 20.3747 98.6532 21.5693 97.3305 22.444C96.0078 23.3187 94.2905 23.756 92.1785 23.756ZM106.565 23.5V0.875999H114.405C116.069 0.875999 117.499 1.15333 118.693 1.708C119.888 2.24133 120.795 3.06267 121.413 4.172C122.053 5.28133 122.373 6.68933 122.373 8.396C122.373 10.06 122 11.468 121.253 12.62C120.528 13.7507 119.525 14.604 118.245 15.18C116.965 15.756 115.493 16.044 113.829 16.044H109.349V23.5H106.565ZM109.349 13.516H113.701C115.429 13.516 116.827 13.1107 117.893 12.3C118.981 11.468 119.525 10.124 119.525 8.268C119.525 6.64667 119.088 5.43067 118.213 4.62C117.339 3.80933 116.027 3.404 114.277 3.404H109.349V13.516Z" fill="white"/>
</svg>
