<svg width="41" height="40" viewBox="0 0 41 40" fill="none" xmlns="http://www.w3.org/2000/svg">
<path d="M20.5 0C9.46 0 0.5 8.96 0.5 20C0.5 31.04 9.46 40 20.5 40C31.54 40 40.5 31.04 40.5 20C40.5 8.96 31.54 0 20.5 0ZM29.78 13.6C29.48 16.76 28.18 24.44 27.52 27.98C27.24 29.48 26.68 29.98 26.16 30.04C25 30.14 24.12 29.28 23 28.54C21.24 27.38 20.24 26.66 18.54 25.54C16.56 24.24 17.84 23.52 18.98 22.36C19.28 22.06 24.4 17.4 24.5 16.98C24.5139 16.9164 24.512 16.8503 24.4946 16.7876C24.4772 16.7249 24.4447 16.6673 24.4 16.62C24.28 16.52 24.12 16.56 23.98 16.58C23.8 16.62 21 18.48 15.54 22.16C14.74 22.7 14.02 22.98 13.38 22.96C12.66 22.94 11.3 22.56 10.28 22.22C9.02 21.82 8.04 21.6 8.12 20.9C8.16 20.54 8.66 20.18 9.6 19.8C15.44 17.26 19.32 15.58 21.26 14.78C26.82 12.46 27.96 12.06 28.72 12.06C28.88 12.06 29.26 12.1 29.5 12.3C29.7 12.46 29.76 12.68 29.78 12.84C29.76 12.96 29.8 13.32 29.78 13.6Z"/>
</svg>
