<svg width="49" height="28" viewBox="0 0 49 28" xmlns="http://www.w3.org/2000/svg">
<path fill-rule="evenodd" clip-rule="evenodd" d="M47.399 1.89645C47.731 0.804471 47.399 0.000488281 45.8091 0.000488281H40.5592C39.2232 0.000488281 38.6072 0.694474 38.2732 1.46046C38.2732 1.46046 35.6033 7.85232 31.8213 12.0042C30.5974 13.2082 30.0414 13.5902 29.3734 13.5902C29.0394 13.5902 28.5374 13.2082 28.5374 12.1142V1.89645C28.5374 0.584476 28.1694 0.000488281 27.0574 0.000488281H18.8016C17.9676 0.000488281 17.4656 0.608475 17.4656 1.18646C17.4656 2.42844 19.3576 2.71643 19.5516 6.21236V13.8082C19.5516 15.4742 19.2456 15.7762 18.5776 15.7762C16.7977 15.7762 12.4677 9.35429 9.8978 2.00645C9.39981 0.576476 8.89582 0.000488281 7.55385 0.000488281H2.29996C0.799994 0.000488281 0.5 0.694474 0.5 1.46046C0.5 2.82443 2.27996 9.60029 8.78983 18.5621C13.1297 24.682 19.2396 27.9999 24.8055 27.9999C28.1434 27.9999 28.5554 27.2639 28.5554 25.9939V21.368C28.5554 19.8941 28.8714 19.6001 29.9294 19.6001C30.7094 19.6001 32.0433 19.9841 35.1593 22.934C38.7192 26.4319 39.3052 27.9999 41.3091 27.9999H46.559C48.059 27.9999 48.811 27.2639 48.379 25.8079C47.903 24.36 46.203 22.258 43.9491 19.7641C42.7251 18.3441 40.8892 16.8141 40.3312 16.0482C39.5532 15.0662 39.7752 14.6282 40.3312 13.7542C40.3312 13.7542 46.731 4.90239 47.397 1.89645"/>
</svg>
